<svg width="200" height="200" viewBox="0 0 200 200" xmlns="http://www.w3.org/2000/svg">
  <defs>
    <linearGradient id="logoGradient" x1="0%" y1="0%" x2="100%" y2="100%">
      <stop offset="0%" style="stop-color:#0EA5E9;stop-opacity:1" />
      <stop offset="100%" style="stop-color:#10B981;stop-opacity:1" />
    </linearGradient>
  </defs>
  
  <!-- Ark/Boat Shape -->
  <path d="M 40 120 Q 100 80, 160 120 L 150 140 Q 100 110, 50 140 Z" 
        fill="url(#logoGradient)" opacity="0.9"/>
  
  <!-- Paw Print -->
  <ellipse cx="100" cy="100" rx="12" ry="15" fill="url(#logoGradient)"/>
  <ellipse cx="85" cy="85" rx="8" ry="10" fill="url(#logoGradient)"/>
  <ellipse cx="115" cy="85" rx="8" ry="10" fill="url(#logoGradient)"/>
  <ellipse cx="80" cy="105" rx="8" ry="10" fill="url(#logoGradient)"/>
  <ellipse cx="120" cy="105" rx="8" ry="10" fill="url(#logoGradient)"/>
  
  <!-- Medical Cross -->
  <rect x="95" y="50" width="10" height="30" fill="#0EA5E9" rx="2"/>
  <rect x="85" y="60" width="30" height="10" fill="#0EA5E9" rx="2"/>
  
  <!-- Pet Silhouette (Cat) -->
  <path d="M 60 150 Q 70 135, 80 145 L 85 142 Q 90 138, 95 145 L 100 148 L 105 145 Q 110 138, 115 142 L 120 145 Q 130 135, 140 150 Q 135 160, 130 158 Q 125 165, 120 163 Q 115 170, 110 168 L 100 170 L 90 168 Q 85 170, 80 163 Q 75 165, 70 158 Q 65 160, 60 150" 
        fill="url(#logoGradient)" opacity="0.7"/>
</svg>
